HIERARCHY
ROOT mixamorig:Hips
{
	OFFSET -0.000000 103.991470 2.076077 
	CHANNELS 6 Xposition Yposition Zposition Xrotation Yrotation Zrotation
	JOINT mixamorig:Spine
	{
		OFFSET 0.000009 10.181587 0.131521 
		CHANNELS 6 Xposition Yposition Zposition Xrotation Yrotation Zrotation
		JOINT mixamorig:Spine1
		{
			OFFSET 0.000000 10.083450 -1.000804 
			CHANNELS 6 Xposition Yposition Zposition Xrotation Yrotation Zrotation
			JOINT mixamorig:Spine2
			{
				OFFSET 0.000000 9.100014 -1.373417 
				CHANNELS 6 Xposition Yposition Zposition Xrotation Yrotation Zrotation
				JOINT mixamorig:Neck
				{
					OFFSET 0.000001 16.671661 -2.516168 
					CHANNELS 6 Xposition Yposition Zposition Xrotation Yrotation Zrotation
					JOINT mixamorig:Head
					{
						OFFSET -0.000000 9.617889 1.685008 
						CHANNELS 6 Xposition Yposition Zposition Xrotation Yrotation Zrotation
						JOINT mixamorig:HeadTop_End
						{
							OFFSET -0.000001 17.815155 2.584985 
							CHANNELS 6 Xposition Yposition Zposition Xrotation Yrotation Zrotation
							End Site
							{
								OFFSET 0.000000 13.794479 0.000000 
							}
						}
						JOINT mixamorig:LeftEye
						{
							OFFSET 3.067561 6.409500 9.283554 
							CHANNELS 6 Xposition Yposition Zposition Xrotation Yrotation Zrotation
							End Site
							{
								OFFSET 0.000000 13.794479 0.000000 
							}
						}
						JOINT mixamorig:RightEye
						{
							OFFSET -3.067550 6.409500 9.283547 
							CHANNELS 6 Xposition Yposition Zposition Xrotation Yrotation Zrotation
							End Site
							{
								OFFSET 0.000000 13.794479 0.000000 
							}
						}
					}
				}
				JOINT mixamorig:LeftShoulder
				{
					OFFSET 4.570446 10.945984 -2.627988 
					CHANNELS 6 Xposition Yposition Zposition Xrotation Yrotation Zrotation
					JOINT mixamorig:LeftArm
					{
						OFFSET 10.592371 -0.524582 -2.232120 
						CHANNELS 6 Xposition Yposition Zposition Xrotation Yrotation Zrotation
						JOINT mixamorig:LeftForeArm
						{
							OFFSET 27.841522 -0.000092 0.000038 
							CHANNELS 6 Xposition Yposition Zposition Xrotation Yrotation Zrotation
							JOINT mixamorig:LeftHand
							{
								OFFSET 28.328835 -0.000015 0.000038 
								CHANNELS 6 Xposition Yposition Zposition Xrotation Yrotation Zrotation
								JOINT mixamorig:LeftHandThumb1
								{
									OFFSET 2.466141 -1.575058 2.682414 
									CHANNELS 6 Xposition Yposition Zposition Xrotation Yrotation Zrotation
									JOINT mixamorig:LeftHandThumb2
									{
										OFFSET 3.229805 -1.864685 1.864681 
										CHANNELS 6 Xposition Yposition Zposition Xrotation Yrotation Zrotation
										JOINT mixamorig:LeftHandThumb3
										{
											OFFSET 2.652565 -1.531494 1.531472 
											CHANNELS 6 Xposition Yposition Zposition Xrotation Yrotation Zrotation
											JOINT mixamorig:LeftHandThumb4
											{
												OFFSET 1.954567 -1.128494 1.128492 
												CHANNELS 6 Xposition Yposition Zposition Xrotation Yrotation Zrotation
												End Site
												{
													OFFSET 0.000000 2.523361 0.000000 
												}
											}
										}
									}
								}
								JOINT mixamorig:LeftHandIndex1
								{
									OFFSET 9.109306 -0.517090 2.260073 
									CHANNELS 6 Xposition Yposition Zposition Xrotation Yrotation Zrotation
									JOINT mixamorig:LeftHandIndex2
									{
										OFFSET 3.676407 0.000000 0.000029 
										CHANNELS 6 Xposition Yposition Zposition Xrotation Yrotation Zrotation
										JOINT mixamorig:LeftHandIndex3
										{
											OFFSET 2.883064 0.000031 -0.000043 
											CHANNELS 6 Xposition Yposition Zposition Xrotation Yrotation Zrotation
											JOINT mixamorig:LeftHandIndex4
											{
												OFFSET 2.392723 0.000031 0.000034 
												CHANNELS 6 Xposition Yposition Zposition Xrotation Yrotation Zrotation
												End Site
												{
													OFFSET 0.000000 2.392715 0.000000 
												}
											}
										}
									}
								}
								JOINT mixamorig:LeftHandMiddle1
								{
									OFFSET 9.533401 -0.000031 0.000014 
									CHANNELS 6 Xposition Yposition Zposition Xrotation Yrotation Zrotation
									JOINT mixamorig:LeftHandMiddle2
									{
										OFFSET 3.698235 0.000000 0.000018 
										CHANNELS 6 Xposition Yposition Zposition Xrotation Yrotation Zrotation
										JOINT mixamorig:LeftHandMiddle3
										{
											OFFSET 2.950928 -0.000046 0.000016 
											CHANNELS 6 Xposition Yposition Zposition Xrotation Yrotation Zrotation
											JOINT mixamorig:LeftHandMiddle4
											{
												OFFSET 2.833900 -0.000046 -0.000010 
												CHANNELS 6 Xposition Yposition Zposition Xrotation Yrotation Zrotation
												End Site
												{
													OFFSET 0.000000 2.833908 0.000000 
												}
											}
										}
									}
								}
								JOINT mixamorig:LeftHandRing1
								{
									OFFSET 9.104530 -0.043945 -1.865085 
									CHANNELS 6 Xposition Yposition Zposition Xrotation Yrotation Zrotation
									JOINT mixamorig:LeftHandRing2
									{
										OFFSET 3.154022 0.000000 0.000010 
										CHANNELS 6 Xposition Yposition Zposition Xrotation Yrotation Zrotation
										JOINT mixamorig:LeftHandRing3
										{
											OFFSET 2.937675 -0.000046 -0.000007 
											CHANNELS 6 Xposition Yposition Zposition Xrotation Yrotation Zrotation
											JOINT mixamorig:LeftHandRing4
											{
												OFFSET 2.647453 -0.000046 0.000000 
												CHANNELS 6 Xposition Yposition Zposition Xrotation Yrotation Zrotation
												End Site
												{
													OFFSET 0.000000 2.647446 0.000000 
												}
											}
										}
									}
								}
								JOINT mixamorig:LeftHandPinky1
								{
									OFFSET 8.077782 -0.488663 -3.806067 
									CHANNELS 6 Xposition Yposition Zposition Xrotation Yrotation Zrotation
									JOINT mixamorig:LeftHandPinky2
									{
										OFFSET 3.600029 -0.000015 -0.000027 
										CHANNELS 6 Xposition Yposition Zposition Xrotation Yrotation Zrotation
										JOINT mixamorig:LeftHandPinky3
										{
											OFFSET 2.114212 0.000031 -0.000003 
											CHANNELS 6 Xposition Yposition Zposition Xrotation Yrotation Zrotation
											JOINT mixamorig:LeftHandPinky4
											{
												OFFSET 1.975685 0.000015 -0.000044 
												CHANNELS 6 Xposition Yposition Zposition Xrotation Yrotation Zrotation
												End Site
												{
													OFFSET 0.000000 1.975677 0.000000 
												}
											}
										}
									}
								}
							}
						}
					}
				}
				JOINT mixamorig:RightShoulder
				{
					OFFSET -4.569970 10.946182 -2.628017 
					CHANNELS 6 Xposition Yposition Zposition Xrotation Yrotation Zrotation
					JOINT mixamorig:RightArm
					{
						OFFSET -10.592844 -0.524811 -2.232099 
						CHANNELS 6 Xposition Yposition Zposition Xrotation Yrotation Zrotation
						JOINT mixamorig:RightForeArm
						{
							OFFSET -27.841522 -0.000031 0.000012 
							CHANNELS 6 Xposition Yposition Zposition Xrotation Yrotation Zrotation
							JOINT mixamorig:RightHand
							{
								OFFSET -28.328835 0.000000 0.000056 
								CHANNELS 6 Xposition Yposition Zposition Xrotation Yrotation Zrotation
								JOINT mixamorig:RightHandPinky1
								{
									OFFSET -8.076675 -0.488449 -3.806010 
									CHANNELS 6 Xposition Yposition Zposition Xrotation Yrotation Zrotation
									JOINT mixamorig:RightHandPinky2
									{
										OFFSET -3.600037 0.000031 0.000051 
										CHANNELS 6 Xposition Yposition Zposition Xrotation Yrotation Zrotation
										JOINT mixamorig:RightHandPinky3
										{
											OFFSET -2.114212 0.000015 0.000015 
											CHANNELS 6 Xposition Yposition Zposition Xrotation Yrotation Zrotation
											JOINT mixamorig:RightHandPinky4
											{
												OFFSET -1.975685 -0.000015 -0.000001 
												CHANNELS 6 Xposition Yposition Zposition Xrotation Yrotation Zrotation
												End Site
												{
													OFFSET 0.000000 1.975677 0.000000 
												}
											}
										}
									}
								}
								JOINT mixamorig:RightHandRing1
								{
									OFFSET -9.103592 -0.043915 -1.865072 
									CHANNELS 6 Xposition Yposition Zposition Xrotation Yrotation Zrotation
									JOINT mixamorig:RightHandRing2
									{
										OFFSET -3.154022 0.000031 0.000049 
										CHANNELS 6 Xposition Yposition Zposition Xrotation Yrotation Zrotation
										JOINT mixamorig:RightHandRing3
										{
											OFFSET -2.937675 -0.000046 -0.000040 
											CHANNELS 6 Xposition Yposition Zposition Xrotation Yrotation Zrotation
											JOINT mixamorig:RightHandRing4
											{
												OFFSET -2.647453 0.000031 -0.000002 
												CHANNELS 6 Xposition Yposition Zposition Xrotation Yrotation Zrotation
												End Site
												{
													OFFSET 0.000000 2.647446 0.000000 
												}
											}
										}
									}
								}
								JOINT mixamorig:RightHandMiddle1
								{
									OFFSET -9.532509 -0.000015 0.000017 
									CHANNELS 6 Xposition Yposition Zposition Xrotation Yrotation Zrotation
									JOINT mixamorig:RightHandMiddle2
									{
										OFFSET -3.698235 0.000015 -0.000022 
										CHANNELS 6 Xposition Yposition Zposition Xrotation Yrotation Zrotation
										JOINT mixamorig:RightHandMiddle3
										{
											OFFSET -2.950920 0.000000 -0.000000 
											CHANNELS 6 Xposition Yposition Zposition Xrotation Yrotation Zrotation
											JOINT mixamorig:RightHandMiddle4
											{
												OFFSET -2.833900 0.000015 0.000054 
												CHANNELS 6 Xposition Yposition Zposition Xrotation Yrotation Zrotation
												End Site
												{
													OFFSET 0.000000 2.833908 0.000000 
												}
											}
										}
									}
								}
								JOINT mixamorig:RightHandIndex1
								{
									OFFSET -9.108284 -0.516785 2.260116 
									CHANNELS 6 Xposition Yposition Zposition Xrotation Yrotation Zrotation
									JOINT mixamorig:RightHandIndex2
									{
										OFFSET -3.676407 0.000015 0.000032 
										CHANNELS 6 Xposition Yposition Zposition Xrotation Yrotation Zrotation
										JOINT mixamorig:RightHandIndex3
										{
											OFFSET -2.883064 -0.000046 0.000040 
											CHANNELS 6 Xposition Yposition Zposition Xrotation Yrotation Zrotation
											JOINT mixamorig:RightHandIndex4
											{
												OFFSET -2.392723 0.000031 0.000028 
												CHANNELS 6 Xposition Yposition Zposition Xrotation Yrotation Zrotation
												End Site
												{
													OFFSET 0.000000 2.392715 0.000000 
												}
											}
										}
									}
								}
								JOINT mixamorig:RightHandThumb1
								{
									OFFSET -2.464806 -1.572708 2.682626 
									CHANNELS 6 Xposition Yposition Zposition Xrotation Yrotation Zrotation
									JOINT mixamorig:RightHandThumb2
									{
										OFFSET -3.229774 -1.864716 1.864719 
										CHANNELS 6 Xposition Yposition Zposition Xrotation Yrotation Zrotation
										JOINT mixamorig:RightHandThumb3
										{
											OFFSET -2.652603 -1.531448 1.531446 
											CHANNELS 6 Xposition Yposition Zposition Xrotation Yrotation Zrotation
											JOINT mixamorig:RightHandThumb4
											{
												OFFSET -1.954582 -1.128464 1.128507 
												CHANNELS 6 Xposition Yposition Zposition Xrotation Yrotation Zrotation
												End Site
												{
													OFFSET 0.000000 2.523361 0.000000 
												}
											}
										}
									}
								}
							}
						}
					}
				}
			}
		}
	}
	JOINT mixamorig:LeftUpLeg
	{
		OFFSET 8.207782 -6.751717 -1.599555 
		CHANNELS 6 Xposition Yposition Zposition Xrotation Yrotation Zrotation
		JOINT mixamorig:LeftLeg
		{
			OFFSET -0.000001 -44.370472 0.284643 
			CHANNELS 6 Xposition Yposition Zposition Xrotation Yrotation Zrotation
			JOINT mixamorig:LeftFoot
			{
				OFFSET 0.000001 -44.427872 -2.982191 
				CHANNELS 6 Xposition Yposition Zposition Xrotation Yrotation Zrotation
				JOINT mixamorig:LeftToeBase
				{
					OFFSET -0.000003 -8.728670 10.710560 
					CHANNELS 6 Xposition Yposition Zposition Xrotation Yrotation Zrotation
					JOINT mixamorig:LeftToe_End
					{
						OFFSET -0.000003 -0.000677 9.278137 
						CHANNELS 6 Xposition Yposition Zposition Xrotation Yrotation Zrotation
						End Site
						{
							OFFSET 0.000000 9.278136 0.000000 
						}
					}
				}
			}
		}
	}
	JOINT mixamorig:RightUpLeg
	{
		OFFSET -8.207796 -6.751663 -1.599559 
		CHANNELS 6 Xposition Yposition Zposition Xrotation Yrotation Zrotation
		JOINT mixamorig:RightLeg
		{
			OFFSET 0.000000 -44.370537 0.286156 
			CHANNELS 6 Xposition Yposition Zposition Xrotation Yrotation Zrotation
			JOINT mixamorig:RightFoot
			{
				OFFSET 0.000001 -44.427731 -2.983789 
				CHANNELS 6 Xposition Yposition Zposition Xrotation Yrotation Zrotation
				JOINT mixamorig:RightToeBase
				{
					OFFSET -0.000002 -8.728668 10.710562 
					CHANNELS 6 Xposition Yposition Zposition Xrotation Yrotation Zrotation
					JOINT mixamorig:RightToe_End
					{
						OFFSET -0.000002 -0.000676 9.278120 
						CHANNELS 6 Xposition Yposition Zposition Xrotation Yrotation Zrotation
						End Site
						{
							OFFSET 0.000000 9.278120 0.000000 
						}
					}
				}
			}
		}
	}
}
MOTION
Frames: 3
Frame Time: 0.033333
-1.504482 -10.342808 1.250791 -1.903963 -34.928177 -5.581854 0.000008 10.181602 0.131521 5.365015 9.897035 -0.721698 0.000001 10.083447 -1.000803 1.707498 3.707392 0.147857 0.000001 9.100015 -1.373417 1.683066 3.721803 0.128156 0.000001 16.671680 -2.516170 9.474245 0.271379 0.415720 0.000002 9.617876 1.685014 8.248504 4.964730 -9.523750 -0.000002 17.815155 2.584983 -0.000001 0.000002 0.000001 3.067560 6.409500 9.283553 -0.000001 0.000002 0.000001 -3.067552 6.409485 9.283543 -0.000001 0.000002 0.000001 4.570446 10.946004 -2.627991 0.822266 -2.600323 3.245019 10.592361 -0.524580 -2.232122 -38.742863 -17.351358 -51.416542 27.841511 -0.000085 0.000035 0.001506 -97.493057 0.001512 28.328842 0.000022 0.000056 -12.427611 -6.665985 -1.996748 2.466141 -1.575044 2.682413 4.881802 7.986075 1.890473 3.229810 -1.864701 1.864678 10.482656 36.539158 -16.219170 2.652566 -1.531491 1.531471 18.159643 67.040710 3.128394 1.954568 -1.128520 1.128491 -0.000000 -0.000001 0.000003 9.109325 -0.517072 2.260077 7.751573 6.930527 -86.152946 3.676406 -0.000024 0.000034 10.211514 5.981044 -119.370728 2.883052 0.000036 -0.000036 8.995923 6.514100 -108.235489 2.392731 0.000030 0.000030 -0.000000 0.000000 -0.000000 9.533415 -0.000035 0.000021 6.530136 6.847671 -87.274452 3.698250 0.000000 0.000022 9.368756 6.380025 -111.554955 2.950914 -0.000009 0.000022 9.173967 6.453096 -109.812080 2.833887 -0.000045 -0.000002 0.000000 -0.000001 -0.000001 9.104525 -0.043938 -1.865088 3.102101 6.843631 -89.819679 3.154036 -0.000010 0.000015 8.973706 6.521326 -108.039864 2.937673 -0.000053 -0.000003 8.529685 6.648677 -104.169212 2.647436 -0.000047 -0.000001 0.000001 0.000001 0.000001 8.077786 -0.488656 -3.806062 1.132648 7.289641 -94.148178 3.600034 -0.000011 -0.000011 7.987557 2.674967 -99.510490 2.114211 -0.000015 -0.000002 10.751890 5.644622 -124.702477 1.975677 0.000015 -0.000049 0.000001 0.000001 0.000000 -4.569969 10.946165 -2.628021 2.311034 6.659103 -6.707539 -10.592848 -0.524794 -2.232099 -43.283623 29.498074 60.165195 -27.841534 -0.000042 0.000009 0.000031 118.000534 -0.000037 -28.328835 -0.000006 0.000059 -10.332998 15.643705 -23.025999 -8.076668 -0.488446 -3.806009 -2.877673 -7.648270 94.127464 -3.600036 0.000045 0.000051 8.069819 -6.824544 99.571915 -2.114217 0.000001 0.000013 10.856030 -5.699081 124.706253 -1.975703 -0.000013 -0.000000 -0.000000 0.000000 0.000001 -9.103601 -0.043911 -1.865069 1.918747 -7.116176 92.181030 -3.154030 0.000012 0.000050 8.346898 -6.773932 101.911697 -2.937658 -0.000052 -0.000040 8.610425 -6.705753 104.170914 -2.647452 0.000032 -0.000001 -0.000000 -0.000001 -0.000003 -9.532514 -0.000014 0.000019 6.584775 -6.913439 87.289604 -3.698249 0.000022 -0.000018 9.457670 -6.442340 111.541519 -2.950918 -0.000007 0.000000 9.261978 -6.507201 109.814545 -2.833904 0.000031 0.000058 -0.000000 0.000001 0.000001 -9.108287 -0.516784 2.260116 9.531319 -7.111107 86.158142 -3.676411 0.000037 0.000039 10.310419 -6.038760 119.374168 -2.883063 -0.000056 0.000043 9.083031 -6.577007 108.237892 -2.392693 0.000047 0.000028 -0.000001 0.000000 0.000000 -2.464800 -1.572710 2.682628 2.090920 -10.072512 3.627534 -3.229776 -1.864700 1.864712 25.669043 -30.709326 6.859493 -2.652591 -1.531466 1.531454 36.148083 -53.487572 18.709322 -1.954580 -1.128479 1.128500 0.000002 -0.000000 -0.000001 8.207781 -6.751705 -1.599555 -26.000500 -6.210769 20.934893 -0.000001 -44.370468 0.284639 24.177925 1.655182 3.181121 0.000003 -44.427868 -2.982197 5.603972 -0.079936 -19.853928 0.000001 -8.728670 10.710566 -0.186630 0.000034 -0.000001 -0.000005 -0.000677 9.278135 -0.000000 0.000000 0.000000 -8.207796 -6.751660 -1.599559 1.119115 -6.322506 -10.604559 -0.000000 -44.370537 0.286154 25.148298 -9.312966 -3.202982 0.000005 -44.427734 -2.983788 -16.115913 -14.534415 22.371517 0.000002 -8.728668 10.710561 -3.119179 0.000036 0.000002 0.000004 -0.000676 9.278120 -0.000000 0.000000 -0.000000 
-1.424237 -10.385670 1.203187 -1.848768 -34.858288 -5.586688 0.000009 10.181605 0.131520 5.347867 9.866122 -0.716512 0.000001 10.083465 -1.000804 1.709195 3.695183 0.139629 0.000000 9.100006 -1.373416 1.685455 3.709241 0.120559 0.000001 16.671659 -2.516167 9.422587 0.311036 0.313906 -0.000001 9.617867 1.685011 8.281959 5.052998 -9.544355 0.000001 17.815155 2.584989 0.000001 -0.000000 -0.000001 3.067563 6.409500 9.283558 0.000001 -0.000000 -0.000001 -3.067548 6.409485 9.283549 0.000001 -0.000000 -0.000001 4.570446 10.945979 -2.627986 0.803578 -2.501967 3.311348 10.592362 -0.524580 -2.232126 -38.799408 -17.533716 -51.421993 27.841532 -0.000092 0.000045 0.001838 -97.579758 0.001838 28.328846 -0.000000 0.000048 -12.634523 -6.540608 -2.187823 2.466140 -1.575045 2.682395 4.881782 7.986066 1.890461 3.229800 -1.864687 1.864678 10.482651 36.539165 -16.219152 2.652563 -1.531491 1.531477 18.159649 67.040718 3.128394 1.954569 -1.128493 1.128494 0.000003 0.000001 -0.000001 9.109290 -0.517086 2.260058 7.751578 6.930510 -86.152954 3.676403 -0.000009 0.000044 10.211508 5.981043 -119.370728 2.883055 0.000021 -0.000041 8.995933 6.514083 -108.235527 2.392724 0.000031 0.000037 -0.000000 0.000002 -0.000000 9.533417 -0.000034 0.000017 6.530137 6.847667 -87.274475 3.698251 -0.000003 0.000023 9.368760 6.380026 -111.554962 2.950925 -0.000032 0.000018 9.173962 6.453103 -109.812073 2.833913 -0.000031 -0.000011 -0.000000 0.000001 0.000001 9.104527 -0.043952 -1.865091 3.102089 6.843625 -89.819695 3.154047 -0.000018 0.000010 8.973705 6.521326 -108.039856 2.937667 -0.000049 -0.000003 8.529685 6.648676 -104.169212 2.647452 -0.000046 -0.000002 0.000001 -0.000001 0.000000 8.077785 -0.488656 -3.806071 1.132651 7.289646 -94.148193 3.600022 0.000006 -0.000018 7.987556 2.674965 -99.510490 2.114207 0.000001 0.000003 10.751889 5.644623 -124.702477 1.975700 0.000016 -0.000032 -0.000000 0.000001 0.000000 -4.569968 10.946160 -2.628015 2.322941 6.700974 -6.649692 -10.592848 -0.524802 -2.232099 -43.449642 29.624992 60.103664 -27.841515 -0.000037 0.000010 0.000056 118.095703 -0.000065 -28.328831 0.000007 0.000062 -10.651696 15.755365 -23.061192 -8.076692 -0.488449 -3.806011 -2.877677 -7.648263 94.127441 -3.600030 0.000024 0.000052 8.069820 -6.824544 99.571915 -2.114224 0.000032 0.000016 10.856031 -5.699082 124.706253 -1.975700 -0.000015 -0.000003 0.000000 0.000000 -0.000000 -9.103621 -0.043893 -1.865071 1.918745 -7.116170 92.181015 -3.154028 0.000022 0.000047 8.346898 -6.773933 101.911705 -2.937667 -0.000045 -0.000037 8.610425 -6.705752 104.170921 -2.647455 0.000040 -0.000002 0.000001 0.000001 -0.000003 -9.532539 -0.000013 0.000017 6.584771 -6.913426 87.289581 -3.698213 0.000030 -0.000017 9.457668 -6.442339 111.541512 -2.950911 0.000005 -0.000000 9.261978 -6.507201 109.814545 -2.833868 0.000028 0.000058 -0.000000 0.000001 0.000002 -9.108287 -0.516784 2.260116 9.531322 -7.111106 86.158157 -3.676408 0.000030 0.000041 10.310418 -6.038759 119.374168 -2.883094 -0.000018 0.000035 9.083031 -6.577008 108.237892 -2.392727 0.000029 0.000024 -0.000000 0.000000 0.000001 -2.464812 -1.572701 2.682630 2.090917 -10.072510 3.627516 -3.229773 -1.864711 1.864712 25.669058 -30.709324 6.859517 -2.652618 -1.531422 1.531446 36.148090 -53.487572 18.709318 -1.954576 -1.128464 1.128510 0.000001 0.000000 0.000000 8.207781 -6.751698 -1.599561 -26.257278 -6.166092 20.893068 0.000002 -44.370461 0.284645 24.340609 1.518440 3.253315 -0.000002 -44.427879 -2.982193 5.607848 -0.073838 -19.825665 0.000003 -8.728669 10.710558 -0.056421 0.000005 0.000004 -0.000003 -0.000677 9.278141 -0.000000 0.000002 0.000000 -8.207798 -6.751657 -1.599560 1.008107 -6.273504 -10.589302 0.000002 -44.370522 0.286156 25.284910 -9.204436 -3.215957 0.000000 -44.427727 -2.983785 -16.247681 -14.468888 22.360359 0.000001 -8.728670 10.710563 -3.055691 -0.000003 0.000002 -0.000008 -0.000676 9.278120 -0.000000 0.000003 0.000000 
-1.397882 -10.431637 1.152342 -1.668281 -34.849758 -5.501220 0.000010 10.181605 0.131520 5.327781 9.823289 -0.755220 0.000001 10.083458 -1.000806 1.709846 3.678965 0.118189 -0.000000 9.100010 -1.373416 1.686642 3.692640 0.099806 0.000001 16.671682 -2.516165 9.301310 0.388010 0.146415 -0.000000 9.617873 1.685005 8.293795 5.246829 -9.559581 -0.000001 17.815140 2.584985 0.000001 0.000000 0.000001 3.067563 6.409500 9.283555 0.000001 0.000000 0.000001 -3.067550 6.409500 9.283548 0.000001 0.000000 0.000001 4.570448 10.945981 -2.627988 0.773436 -2.337829 3.384455 10.592364 -0.524579 -2.232119 -38.795212 -17.778652 -51.452538 27.841513 -0.000096 0.000040 0.001294 -98.152840 0.001303 28.328829 -0.000001 0.000031 -13.123539 -6.679960 -2.034846 2.466152 -1.575026 2.682411 4.881778 7.986075 1.890450 3.229802 -1.864704 1.864678 10.482653 36.539173 -16.219170 2.652557 -1.531479 1.531475 18.159649 67.040718 3.128391 1.954557 -1.128493 1.128498 -0.000000 -0.000002 0.000001 9.109315 -0.517073 2.260081 7.751571 6.930520 -86.152946 3.676395 0.000006 0.000038 10.211511 5.981046 -119.370728 2.883059 0.000036 -0.000036 8.995927 6.514090 -108.235489 2.392716 0.000030 0.000036 0.000000 -0.000002 -0.000000 9.533415 -0.000024 0.000024 6.530144 6.847663 -87.274475 3.698246 0.000012 0.000024 9.368756 6.380028 -111.554970 2.950933 -0.000034 0.000018 9.173949 6.453107 -109.812057 2.833894 -0.000063 -0.000009 0.000000 -0.000001 -0.000000 9.104541 -0.043933 -1.865073 3.102094 6.843624 -89.819695 3.154036 0.000013 -0.000002 8.973706 6.521327 -108.039856 2.937694 -0.000049 -0.000005 8.529687 6.648676 -104.169212 2.647455 -0.000044 0.000009 -0.000001 -0.000002 -0.000000 8.077806 -0.488661 -3.806068 1.132652 7.289648 -94.148209 3.600032 -0.000009 -0.000034 7.987557 2.674963 -99.510483 2.114199 0.000009 0.000006 10.751893 5.644624 -124.702477 1.975685 0.000015 -0.000045 -0.000000 -0.000000 0.000000 -4.569967 10.946159 -2.628017 2.358299 6.828181 -6.565707 -10.592850 -0.524786 -2.232097 -43.833942 29.771591 59.979328 -27.841520 -0.000029 0.000012 0.000056 118.191673 -0.000070 -28.328838 -0.000015 0.000052 -10.810410 15.578476 -22.877787 -8.076665 -0.488455 -3.806011 -2.877677 -7.648272 94.127457 -3.600037 0.000022 0.000050 8.069817 -6.824543 99.571915 -2.114236 0.000025 0.000013 10.856032 -5.699082 124.706238 -1.975696 -0.000017 -0.000005 0.000000 0.000001 -0.000002 -9.103593 -0.043916 -1.865075 1.918743 -7.116167 92.180984 -3.154017 0.000013 0.000051 8.346900 -6.773933 101.911697 -2.937677 -0.000041 -0.000036 8.610425 -6.705752 104.170921 -2.647447 0.000027 0.000002 0.000000 0.000000 0.000001 -9.532488 -0.000013 0.000013 6.584775 -6.913433 87.289597 -3.698236 0.000003 -0.000015 9.457669 -6.442339 111.541512 -2.950949 -0.000010 -0.000001 9.261979 -6.507202 109.814545 -2.833899 0.000013 0.000054 -0.000000 -0.000000 -0.000000 -9.108284 -0.516789 2.260115 9.531316 -7.111102 86.158127 -3.676411 0.000037 0.000034 10.310418 -6.038761 119.374168 -2.883050 -0.000060 0.000044 9.083031 -6.577006 108.237892 -2.392711 0.000033 0.000029 -0.000000 -0.000000 0.000001 -2.464801 -1.572708 2.682626 2.090914 -10.072512 3.627506 -3.229778 -1.864722 1.864715 25.669079 -30.709295 6.859553 -2.652616 -1.531447 1.531441 36.148098 -53.487576 18.709318 -1.954582 -1.128462 1.128510 0.000001 -0.000000 -0.000000 8.207783 -6.751703 -1.599561 -26.493393 -6.239863 20.870758 -0.000000 -44.370472 0.284640 24.429312 1.482768 3.305835 0.000000 -44.427872 -2.982193 5.607636 -0.064914 -19.870497 -0.000002 -8.728669 10.710559 -0.000496 -0.000002 0.000001 -0.000002 -0.000677 9.278137 0.000000 -0.000000 -0.000000 -8.207794 -6.751652 -1.599559 0.726188 -6.326098 -10.578713 -0.000000 -44.370537 0.286158 25.482384 -9.113317 -3.288810 0.000005 -44.427727 -2.983786 -16.403383 -14.306723 22.375923 -0.000004 -8.728668 10.710563 -3.103122 -0.000002 0.000005 -0.000010 -0.000676 9.278120 -0.000000 0.000002 0.000000 
